<svg width="93" height="93" viewBox="0 0 93 93" fill="none" xmlns="http://www.w3.org/2000/svg">
<g id="logo-instagram 2">
<g id="Group">
<path id="Vector" d="M46.4978 8.37846C58.9127 8.37846 60.3829 8.42496 65.2873 8.64859C68.2361 8.68467 71.1569 9.22614 73.9226 10.2494C75.9283 11.0229 77.7498 12.2079 79.2699 13.7279C80.7899 15.248 81.9749 17.0695 82.7484 19.0752C83.7717 21.8409 84.3131 24.7617 84.3492 27.7105C84.5706 32.6149 84.6193 34.0851 84.6193 46.5C84.6193 58.9149 84.5728 60.3851 84.3492 65.2895C84.3131 68.2383 83.7717 71.1591 82.7484 73.9248C81.9749 75.9305 80.7899 77.752 79.2699 79.2721C77.7498 80.7921 75.9283 81.9771 73.9226 82.7506C71.1569 83.7739 68.2361 84.3153 65.2873 84.3514C60.3851 84.5728 58.9149 84.6215 46.4978 84.6215C34.0807 84.6215 32.6105 84.575 27.7083 84.3514C24.7595 84.3153 21.8387 83.7739 19.073 82.7506C17.0673 81.9771 15.2458 80.7921 13.7257 79.2721C12.2057 77.752 11.0207 75.9305 10.2472 73.9248C9.22392 71.1591 8.68246 68.2383 8.64638 65.2895C8.42496 60.3851 8.37625 58.9149 8.37625 46.5C8.37625 34.0851 8.42274 32.6149 8.64638 27.7105C8.68246 24.7617 9.22392 21.8409 10.2472 19.0752C11.0207 17.0695 12.2057 15.248 13.7257 13.7279C15.2458 12.2079 17.0673 11.0229 19.073 10.2494C21.8387 9.22614 24.7595 8.68467 27.7083 8.64859C32.6127 8.42717 34.0829 8.37846 46.4978 8.37846ZM46.4978 0C33.877 0 32.2872 0.0531402 27.3274 0.278987C23.4682 0.355748 19.65 1.08646 16.0351 2.44003C12.9341 3.60837 10.1254 5.43928 7.80499 7.80499C5.43714 10.1263 3.60467 12.9366 2.4356 16.0395C1.08203 19.6544 0.35132 23.4726 0.274559 27.3318C0.0531405 32.2872 0 33.877 0 46.4978C0 59.1186 0.0531402 60.7084 0.278987 65.6682C0.355748 69.5274 1.08646 73.3456 2.44003 76.9605C3.6078 80.063 5.43874 82.8733 7.80499 85.195C10.1267 87.5613 12.937 89.3922 16.0395 90.56C19.6544 91.9135 23.4726 92.6442 27.3318 92.721C32.2916 92.9424 33.8748 93 46.5022 93C59.1297 93 60.7128 92.9469 65.6726 92.721C69.5318 92.6442 73.3501 91.9135 76.9649 90.56C80.0528 89.3631 82.8568 87.5349 85.1978 85.1924C87.5387 82.8499 89.3651 80.0447 90.56 76.956C91.9136 73.3412 92.6443 69.5229 92.721 65.6637C92.9425 60.7084 92.9956 59.1186 92.9956 46.4978C92.9956 33.877 92.9425 32.2872 92.7166 27.3274C92.6398 23.4682 91.9091 19.65 90.5556 16.0351C89.3878 12.9325 87.5568 10.1223 85.1906 7.80056C82.8689 5.43431 80.0586 3.60337 76.9561 2.4356C73.3412 1.08203 69.5229 0.35132 65.6637 0.274559C60.7084 0.0531405 59.1186 0 46.4978 0Z" fill="url(#paint0_linear_10134_16127)"/>
<path id="Vector_2" d="M46.5063 22.6436C41.7838 22.6436 37.1673 24.044 33.2406 26.6677C29.3139 29.2914 26.2534 33.0206 24.4462 37.3837C22.6389 41.7468 22.1661 46.5478 23.0874 51.1796C24.0087 55.8114 26.2829 60.066 29.6222 63.4054C32.9616 66.7447 37.2162 69.0189 41.848 69.9402C46.4799 70.8615 51.2809 70.3887 55.6439 68.5814C60.007 66.7742 63.7362 63.7137 66.3599 59.787C68.9837 55.8604 70.3841 51.2438 70.3841 46.5213C70.3841 40.1885 67.8684 34.1151 63.3904 29.6372C58.9125 25.1592 52.8391 22.6436 46.5063 22.6436ZM46.5063 62.0205C43.4409 62.0205 40.4442 61.1115 37.8954 59.4084C35.3466 57.7054 33.36 55.2847 32.1869 52.4526C31.0138 49.6205 30.7068 46.5041 31.3049 43.4975C31.9029 40.491 33.3791 37.7293 35.5467 35.5616C37.7143 33.394 40.476 31.9179 43.4826 31.3198C46.4891 30.7218 49.6055 31.0287 52.4376 32.2018C55.2698 33.3749 57.6904 35.3615 59.3935 37.9103C61.0966 40.4592 62.0056 43.4558 62.0056 46.5213C62.0056 50.6319 60.3726 54.5742 57.466 57.4809C54.5593 60.3876 50.617 62.0205 46.5063 62.0205Z" fill="url(#paint1_linear_10134_16127)"/>
<path id="Vector_3" d="M71.3235 27.2654C74.4051 27.2654 76.9032 24.7673 76.9032 21.6857C76.9032 18.6041 74.4051 16.106 71.3235 16.106C68.2419 16.106 65.7438 18.6041 65.7438 21.6857C65.7438 24.7673 68.2419 27.2654 71.3235 27.2654Z" fill="url(#paint2_linear_10134_16127)"/>
</g>
</g>
<defs>
<linearGradient id="paint0_linear_10134_16127" x1="46.4978" y1="0" x2="46.4978" y2="93" gradientUnits="userSpaceOnUse">
<stop stop-color="#CFAC6A"/>
<stop offset="1" stop-color="#202020"/>
</linearGradient>
<linearGradient id="paint1_linear_10134_16127" x1="46.5063" y1="22.6436" x2="46.5063" y2="70.399" gradientUnits="userSpaceOnUse">
<stop stop-color="#CFAC6A"/>
<stop offset="1" stop-color="#202020"/>
</linearGradient>
<linearGradient id="paint2_linear_10134_16127" x1="71.3235" y1="16.106" x2="71.3235" y2="27.2654" gradientUnits="userSpaceOnUse">
<stop stop-color="#CFAC6A"/>
<stop offset="1" stop-color="#202020"/>
</linearGradient>
</defs>
</svg>
